<svg width="1920" height="1080" viewBox="0 0 1920 1080" fill="none" xmlns="http://www.w3.org/2000/svg">
<g clip-path="url(#clip0_0_3)">
<rect width="1920" height="1080" fill="#144D65"/>
<rect x="775.224" y="-368.844" width="2605.27" height="1332.95" transform="rotate(65.0214 775.224 -368.844)" fill="white" fill-opacity="0.02"/>
<rect width="2524.17" height="1067.42" transform="matrix(-0.937327 0.348451 0.348451 0.937327 2365.97 349)" fill="black" fill-opacity="0.06"/>
<g filter="url(#filter0_d_0_3)">
<path d="M961.086 450.137L961.598 450.191L962.105 450.27L962.609 450.367L963.102 450.484L963.59 450.625L964.07 450.781L964.539 450.961L965 451.156L965.453 451.371L965.898 451.605L966.332 451.855L966.754 452.125L967.168 452.406L967.57 452.707L967.957 453.023L968.336 453.355L968.703 453.703L969.055 454.066L969.395 454.441L969.719 454.828L969.809 454.945L969.883 455.031L969.969 455.137L970.047 455.25L970.078 455.293L970.328 455.645L970.613 456.074L970.879 456.512L971.133 456.961L971.367 457.422L971.578 457.879L1040.71 577.629L1040.79 577.75L1040.84 577.875L1040.9 578L1040.95 578.125L1041 578.254L1041.04 578.383L1041.07 578.512L1041.1 578.641L1041.12 578.77L1041.14 578.902L1041.16 579.031L1041.17 579.164V579.293V579.422L1041.16 579.555L1041.15 579.684L1041.13 579.813L1041.11 579.941L1041.09 580.066L1041.05 580.191L1041.02 580.316L1040.98 580.441L1040.93 580.562L1040.88 580.684L1040.83 580.801L1040.77 580.914L1040.7 581.031L1040.64 581.141L1040.56 581.25L1040.48 581.355L1040.41 581.461L1040.32 581.562L1040.23 581.66L1040.13 581.754L1040.04 581.844L1039.93 581.934L1039.82 582.016L1039.71 582.098L1039.6 582.172L1039.48 582.242L1019.36 593.863L1019.23 593.93L1019.11 593.992L1018.98 594.047L1018.86 594.098L1018.73 594.145L1018.6 594.184L1018.47 594.219L1018.34 594.246L1018.21 594.273L1018.09 594.289L1017.95 594.305L1017.82 594.313L1017.69 594.316L1017.56 594.313L1017.43 594.309L1017.3 594.297L1017.17 594.281L1017.05 594.258L1016.92 594.23L1016.79 594.199L1016.67 594.164L1016.54 594.125L1016.42 594.078L1016.3 594.027L1016.18 593.973L1016.07 593.914L1015.95 593.852L1015.84 593.781L1015.73 593.711L1015.63 593.633L1015.52 593.551L1015.42 593.465L1015.32 593.375L1015.23 593.281L1015.14 593.184L1015.05 593.078L1014.97 592.973L1014.89 592.859L1014.81 592.746L1014.74 592.625L960 497.812L905.258 592.625L905.187 592.746L905.109 592.859L905.031 592.973L904.945 593.078L904.859 593.184L904.77 593.281L904.676 593.375L904.578 593.465L904.477 593.551L904.371 593.633L904.266 593.711L904.156 593.781L904.047 593.852L903.93 593.914L903.816 593.973L903.695 594.027L903.578 594.078L903.457 594.125L903.332 594.164L903.207 594.199L903.082 594.23L902.953 594.258L902.828 594.281L902.699 594.297L902.57 594.309L902.438 594.313L902.309 594.316L902.176 594.313L902.047 594.305L901.914 594.289L901.785 594.273L901.656 594.246L901.527 594.219L901.398 594.184L901.27 594.145L901.141 594.098L901.016 594.047L900.891 593.992L900.766 593.93L900.645 593.863L880.52 582.242L880.402 582.172L880.285 582.098L880.176 582.016L880.066 581.934L879.965 581.844L879.867 581.754L879.77 581.66L879.68 581.562L879.594 581.461L879.516 581.355L879.438 581.25L879.363 581.141L879.297 581.031L879.23 580.914L879.172 580.801L879.117 580.684L879.066 580.562L879.023 580.441L878.98 580.316L878.945 580.191L878.914 580.066L878.887 579.941L878.867 579.813L878.852 579.684L878.84 579.555L878.832 579.422V579.293V579.164L878.844 579.031L878.855 578.902L878.875 578.77L878.898 578.641L878.93 578.512L878.961 578.383L879.004 578.254L879.047 578.125L879.098 578L879.156 577.875L879.215 577.75L879.285 577.629L948.938 456.988L948.949 456.961L949.199 456.512L949.391 456.199L949.805 455.484L949.875 455.363L949.953 455.25L950.031 455.137L950.117 455.031L950.203 454.93L950.293 454.828L950.391 454.734L950.488 454.645L950.582 454.566L950.688 454.441L951.027 454.066L951.379 453.703L951.742 453.355L952.121 453.023L952.512 452.707L952.914 452.406L953.324 452.125L953.75 451.855L954.184 451.605L954.625 451.371L955.078 451.156L955.539 450.961L956.012 450.781L956.492 450.625L956.977 450.484L957.473 450.367L957.973 450.27L958.48 450.191L958.996 450.137L959.516 450.102L960.039 450.09L960.566 450.102L961.086 450.137Z" fill="white"/>
<path d="M961.086 450.137L961.598 450.191L962.105 450.27L962.609 450.367L963.102 450.484L963.59 450.625L964.07 450.781L964.539 450.961L965 451.156L965.453 451.371L965.898 451.605L966.332 451.855L966.754 452.125L967.168 452.406L967.57 452.707L967.957 453.023L968.336 453.355L968.703 453.703L969.055 454.066L969.395 454.441L969.719 454.828L969.809 454.945L969.883 455.031L969.969 455.137L970.047 455.25L970.078 455.293L970.328 455.645L970.613 456.074L970.879 456.512L971.133 456.961L971.367 457.422L971.578 457.879L1040.71 577.629L1040.79 577.75L1040.84 577.875L1040.9 578L1040.95 578.125L1041 578.254L1041.04 578.383L1041.07 578.512L1041.1 578.641L1041.12 578.77L1041.14 578.902L1041.16 579.031L1041.17 579.164V579.293V579.422L1041.16 579.555L1041.15 579.684L1041.13 579.813L1041.11 579.941L1041.09 580.066L1041.05 580.191L1041.02 580.316L1040.98 580.441L1040.93 580.562L1040.88 580.684L1040.83 580.801L1040.77 580.914L1040.7 581.031L1040.64 581.141L1040.56 581.25L1040.48 581.355L1040.41 581.461L1040.32 581.562L1040.23 581.66L1040.13 581.754L1040.04 581.844L1039.93 581.934L1039.82 582.016L1039.71 582.098L1039.6 582.172L1039.48 582.242L1019.36 593.863L1019.23 593.93L1019.11 593.992L1018.98 594.047L1018.86 594.098L1018.73 594.145L1018.6 594.184L1018.47 594.219L1018.34 594.246L1018.21 594.273L1018.09 594.289L1017.95 594.305L1017.82 594.313L1017.69 594.316L1017.56 594.313L1017.43 594.309L1017.3 594.297L1017.17 594.281L1017.05 594.258L1016.92 594.23L1016.79 594.199L1016.67 594.164L1016.54 594.125L1016.42 594.078L1016.3 594.027L1016.18 593.973L1016.07 593.914L1015.95 593.852L1015.84 593.781L1015.73 593.711L1015.63 593.633L1015.52 593.551L1015.42 593.465L1015.32 593.375L1015.23 593.281L1015.14 593.184L1015.05 593.078L1014.97 592.973L1014.89 592.859L1014.81 592.746L1014.74 592.625L960 497.812L905.258 592.625L905.187 592.746L905.109 592.859L905.031 592.973L904.945 593.078L904.859 593.184L904.77 593.281L904.676 593.375L904.578 593.465L904.477 593.551L904.371 593.633L904.266 593.711L904.156 593.781L904.047 593.852L903.93 593.914L903.816 593.973L903.695 594.027L903.578 594.078L903.457 594.125L903.332 594.164L903.207 594.199L903.082 594.23L902.953 594.258L902.828 594.281L902.699 594.297L902.57 594.309L902.438 594.313L902.309 594.316L902.176 594.313L902.047 594.305L901.914 594.289L901.785 594.273L901.656 594.246L901.527 594.219L901.398 594.184L901.27 594.145L901.141 594.098L901.016 594.047L900.891 593.992L900.766 593.93L900.645 593.863L880.52 582.242L880.402 582.172L880.285 582.098L880.176 582.016L880.066 581.934L879.965 581.844L879.867 581.754L879.77 581.66L879.68 581.562L879.594 581.461L879.516 581.355L879.438 581.25L879.363 581.141L879.297 581.031L879.23 580.914L879.172 580.801L879.117 580.684L879.066 580.562L879.023 580.441L878.98 580.316L878.945 580.191L878.914 580.066L878.887 579.941L878.867 579.813L878.852 579.684L878.84 579.555L878.832 579.422V579.293V579.164L878.844 579.031L878.855 578.902L878.875 578.77L878.898 578.641L878.93 578.512L878.961 578.383L879.004 578.254L879.047 578.125L879.098 578L879.156 577.875L879.215 577.75L879.285 577.629L948.938 456.988L948.949 456.961L949.199 456.512L949.391 456.199L949.805 455.484L949.875 455.363L949.953 455.25L950.031 455.137L950.117 455.031L950.203 454.93L950.293 454.828L950.391 454.734L950.488 454.645L950.582 454.566L950.688 454.441L951.027 454.066L951.379 453.703L951.742 453.355L952.121 453.023L952.512 452.707L952.914 452.406L953.324 452.125L953.75 451.855L954.184 451.605L954.625 451.371L955.078 451.156L955.539 450.961L956.012 450.781L956.492 450.625L956.977 450.484L957.473 450.367L957.973 450.27L958.48 450.191L958.996 450.137L959.516 450.102L960.039 450.09L960.566 450.102L961.086 450.137Z" fill="#414141"/>
</g>
<g filter="url(#filter1_d_0_3)">
<path d="M961.477 462.637L961.988 462.691L962.496 462.77L963 462.867L963.492 462.984L963.98 463.125L964.461 463.281L964.93 463.461L965.391 463.656L965.844 463.871L966.289 464.105L966.723 464.355L967.145 464.625L967.559 464.906L967.961 465.207L968.348 465.523L968.727 465.855L969.094 466.203L969.445 466.566L969.785 466.941L970.109 467.328L970.199 467.445L970.273 467.531L970.359 467.637L970.438 467.75L970.469 467.793L970.719 468.145L971.004 468.574L971.27 469.012L971.523 469.461L971.758 469.922L971.969 470.379L1041.11 590.129L1041.18 590.25L1041.23 590.375L1041.29 590.5L1041.34 590.625L1041.39 590.754L1041.43 590.883L1041.46 591.012L1041.49 591.141L1041.52 591.27L1041.54 591.402L1041.55 591.531L1041.56 591.664V591.793V591.922L1041.55 592.055L1041.54 592.184L1041.52 592.313L1041.5 592.441L1041.48 592.566L1041.45 592.691L1041.41 592.816L1041.37 592.941L1041.32 593.062L1041.27 593.184L1041.22 593.301L1041.16 593.414L1041.09 593.531L1041.03 593.641L1040.95 593.75L1040.88 593.855L1040.8 593.961L1040.71 594.062L1040.62 594.16L1040.52 594.254L1040.43 594.344L1040.32 594.434L1040.21 594.516L1040.11 594.598L1039.99 594.672L1039.87 594.742L1019.75 606.363L1019.63 606.43L1019.5 606.492L1019.38 606.547L1019.25 606.598L1019.12 606.645L1018.99 606.684L1018.86 606.719L1018.73 606.746L1018.61 606.773L1018.48 606.789L1018.34 606.805L1018.21 606.813L1018.08 606.816L1017.95 606.813L1017.82 606.809L1017.69 606.797L1017.56 606.781L1017.44 606.758L1017.31 606.73L1017.18 606.699L1017.06 606.664L1016.93 606.625L1016.81 606.578L1016.7 606.527L1016.57 606.473L1016.46 606.414L1016.34 606.352L1016.23 606.281L1016.12 606.211L1016.02 606.133L1015.91 606.051L1015.81 605.965L1015.71 605.875L1015.62 605.781L1015.53 605.684L1015.45 605.578L1015.36 605.473L1015.28 605.359L1015.2 605.246L1015.13 605.125L960.391 510.312L905.648 605.125L905.578 605.246L905.5 605.359L905.422 605.473L905.336 605.578L905.25 605.684L905.16 605.781L905.066 605.875L904.969 605.965L904.867 606.051L904.762 606.133L904.656 606.211L904.547 606.281L904.437 606.352L904.32 606.414L904.207 606.473L904.086 606.527L903.969 606.578L903.848 606.625L903.723 606.664L903.598 606.699L903.473 606.73L903.344 606.758L903.219 606.781L903.09 606.797L902.961 606.809L902.828 606.813L902.699 606.816L902.566 606.813L902.438 606.805L902.305 606.789L902.176 606.773L902.047 606.746L901.918 606.719L901.789 606.684L901.66 606.645L901.531 606.598L901.406 606.547L901.281 606.492L901.156 606.43L901.035 606.363L880.91 594.742L880.793 594.672L880.676 594.598L880.566 594.516L880.457 594.434L880.355 594.344L880.258 594.254L880.16 594.16L880.07 594.062L879.984 593.961L879.906 593.855L879.828 593.75L879.754 593.641L879.688 593.531L879.621 593.414L879.563 593.301L879.508 593.184L879.457 593.062L879.414 592.941L879.371 592.816L879.336 592.691L879.305 592.566L879.277 592.441L879.258 592.313L879.242 592.184L879.23 592.055L879.223 591.922V591.793V591.664L879.234 591.531L879.246 591.402L879.266 591.27L879.289 591.141L879.32 591.012L879.352 590.883L879.395 590.754L879.438 590.625L879.488 590.5L879.547 590.375L879.605 590.25L879.676 590.129L949.328 469.488L949.34 469.461L949.59 469.012L949.781 468.699L950.195 467.984L950.266 467.863L950.344 467.75L950.422 467.637L950.508 467.531L950.594 467.43L950.684 467.328L950.781 467.234L950.879 467.145L950.973 467.066L951.078 466.941L951.418 466.566L951.77 466.203L952.133 465.855L952.512 465.523L952.902 465.207L953.305 464.906L953.715 464.625L954.141 464.355L954.574 464.105L955.016 463.871L955.469 463.656L955.93 463.461L956.402 463.281L956.883 463.125L957.367 462.984L957.863 462.867L958.363 462.77L958.871 462.691L959.387 462.637L959.906 462.602L960.43 462.59L960.957 462.602L961.477 462.637Z" fill="white"/>
<path d="M961.477 462.637L961.988 462.691L962.496 462.77L963 462.867L963.492 462.984L963.98 463.125L964.461 463.281L964.93 463.461L965.391 463.656L965.844 463.871L966.289 464.105L966.723 464.355L967.145 464.625L967.559 464.906L967.961 465.207L968.348 465.523L968.727 465.855L969.094 466.203L969.445 466.566L969.785 466.941L970.109 467.328L970.199 467.445L970.273 467.531L970.359 467.637L970.438 467.75L970.469 467.793L970.719 468.145L971.004 468.574L971.27 469.012L971.523 469.461L971.758 469.922L971.969 470.379L1041.11 590.129L1041.18 590.25L1041.23 590.375L1041.29 590.5L1041.34 590.625L1041.39 590.754L1041.43 590.883L1041.46 591.012L1041.49 591.141L1041.52 591.27L1041.54 591.402L1041.55 591.531L1041.56 591.664V591.793V591.922L1041.55 592.055L1041.54 592.184L1041.52 592.313L1041.5 592.441L1041.48 592.566L1041.45 592.691L1041.41 592.816L1041.37 592.941L1041.32 593.062L1041.27 593.184L1041.22 593.301L1041.16 593.414L1041.09 593.531L1041.03 593.641L1040.95 593.75L1040.88 593.855L1040.8 593.961L1040.71 594.062L1040.62 594.16L1040.52 594.254L1040.43 594.344L1040.32 594.434L1040.21 594.516L1040.11 594.598L1039.99 594.672L1039.87 594.742L1019.75 606.363L1019.63 606.43L1019.5 606.492L1019.38 606.547L1019.25 606.598L1019.12 606.645L1018.99 606.684L1018.86 606.719L1018.73 606.746L1018.61 606.773L1018.48 606.789L1018.34 606.805L1018.21 606.813L1018.08 606.816L1017.95 606.813L1017.82 606.809L1017.69 606.797L1017.56 606.781L1017.44 606.758L1017.31 606.73L1017.18 606.699L1017.06 606.664L1016.93 606.625L1016.81 606.578L1016.7 606.527L1016.57 606.473L1016.46 606.414L1016.34 606.352L1016.23 606.281L1016.12 606.211L1016.02 606.133L1015.91 606.051L1015.81 605.965L1015.71 605.875L1015.62 605.781L1015.53 605.684L1015.45 605.578L1015.36 605.473L1015.28 605.359L1015.2 605.246L1015.13 605.125L960.391 510.312L905.648 605.125L905.578 605.246L905.5 605.359L905.422 605.473L905.336 605.578L905.25 605.684L905.16 605.781L905.066 605.875L904.969 605.965L904.867 606.051L904.762 606.133L904.656 606.211L904.547 606.281L904.437 606.352L904.32 606.414L904.207 606.473L904.086 606.527L903.969 606.578L903.848 606.625L903.723 606.664L903.598 606.699L903.473 606.73L903.344 606.758L903.219 606.781L903.09 606.797L902.961 606.809L902.828 606.813L902.699 606.816L902.566 606.813L902.438 606.805L902.305 606.789L902.176 606.773L902.047 606.746L901.918 606.719L901.789 606.684L901.66 606.645L901.531 606.598L901.406 606.547L901.281 606.492L901.156 606.43L901.035 606.363L880.91 594.742L880.793 594.672L880.676 594.598L880.566 594.516L880.457 594.434L880.355 594.344L880.258 594.254L880.16 594.16L880.07 594.062L879.984 593.961L879.906 593.855L879.828 593.75L879.754 593.641L879.688 593.531L879.621 593.414L879.563 593.301L879.508 593.184L879.457 593.062L879.414 592.941L879.371 592.816L879.336 592.691L879.305 592.566L879.277 592.441L879.258 592.313L879.242 592.184L879.23 592.055L879.223 591.922V591.793V591.664L879.234 591.531L879.246 591.402L879.266 591.27L879.289 591.141L879.32 591.012L879.352 590.883L879.395 590.754L879.438 590.625L879.488 590.5L879.547 590.375L879.605 590.25L879.676 590.129L949.328 469.488L949.34 469.461L949.59 469.012L949.781 468.699L950.195 467.984L950.266 467.863L950.344 467.75L950.422 467.637L950.508 467.531L950.594 467.43L950.684 467.328L950.781 467.234L950.879 467.145L950.973 467.066L951.078 466.941L951.418 466.566L951.77 466.203L952.133 465.855L952.512 465.523L952.902 465.207L953.305 464.906L953.715 464.625L954.141 464.355L954.574 464.105L955.016 463.871L955.469 463.656L955.93 463.461L956.402 463.281L956.883 463.125L957.367 462.984L957.863 462.867L958.363 462.77L958.871 462.691L959.387 462.637L959.906 462.602L960.43 462.59L960.957 462.602L961.477 462.637Z" fill="#636363"/>
</g>
<g filter="url(#filter2_d_0_3)">
<path d="M961.477 476.656L961.988 476.711L962.496 476.789L963 476.887L963.492 477.004L963.98 477.145L964.461 477.305L964.93 477.48L965.391 477.676L965.844 477.895L966.289 478.125L966.723 478.375L967.145 478.645L967.559 478.93L967.961 479.23L968.348 479.547L968.727 479.879L969.094 480.223L969.445 480.586L969.785 480.961L970.109 481.352L970.199 481.465L970.273 481.551L970.359 481.66L970.438 481.77L970.469 481.816L970.719 482.168L971.004 482.594L971.27 483.031L971.523 483.484L971.758 483.945L971.969 484.398L1041.11 604.148L1041.18 604.273L1041.23 604.395L1041.29 604.52L1041.34 604.648L1041.39 604.773L1041.43 604.902L1041.46 605.031L1041.49 605.16L1041.52 605.289L1041.54 605.422L1041.55 605.551L1041.56 605.684V605.812V605.945L1041.55 606.074L1041.54 606.203L1041.52 606.332L1041.5 606.461L1041.48 606.586L1041.45 606.715L1041.41 606.84L1041.37 606.961L1041.32 607.082L1041.27 607.203L1041.22 607.32L1041.16 607.438L1041.09 607.551L1041.03 607.66L1040.95 607.77L1040.88 607.879L1040.8 607.98L1040.71 608.082L1040.62 608.18L1040.52 608.273L1040.43 608.363L1040.32 608.453L1040.21 608.535L1040.11 608.617L1039.99 608.691L1039.87 608.766L1019.75 620.383L1019.63 620.449L1019.5 620.512L1019.38 620.57L1019.25 620.621L1019.12 620.664L1018.99 620.703L1018.86 620.738L1018.73 620.77L1018.61 620.793L1018.48 620.812L1018.34 620.824L1018.21 620.832L1018.08 620.836H1017.95L1017.82 620.828L1017.69 620.816L1017.56 620.801L1017.44 620.777L1017.31 620.754L1017.18 620.723L1017.06 620.684L1016.93 620.645L1016.81 620.598L1016.7 620.551L1016.57 620.496L1016.46 620.434L1016.34 620.371L1016.23 620.305L1016.12 620.23L1016.02 620.152L1015.91 620.07L1015.81 619.984L1015.71 619.895L1015.62 619.801L1015.53 619.703L1015.45 619.598L1015.36 619.492L1015.28 619.383L1015.2 619.266L1015.13 619.148L960.391 524.332L905.648 619.148L905.578 619.266L905.5 619.383L905.422 619.492L905.336 619.598L905.25 619.703L905.16 619.801L905.066 619.895L904.969 619.984L904.867 620.07L904.762 620.152L904.656 620.23L904.547 620.305L904.437 620.371L904.32 620.434L904.207 620.496L904.086 620.551L903.969 620.598L903.848 620.645L903.723 620.684L903.598 620.723L903.473 620.754L903.344 620.777L903.219 620.801L903.09 620.816L902.961 620.828L902.828 620.836H902.699L902.566 620.832L902.438 620.824L902.305 620.812L902.176 620.793L902.047 620.77L901.918 620.738L901.789 620.703L901.66 620.664L901.531 620.621L901.406 620.57L901.281 620.512L901.156 620.449L901.035 620.383L880.91 608.766L880.793 608.691L880.676 608.617L880.566 608.535L880.457 608.453L880.355 608.363L880.258 608.273L880.16 608.18L880.07 608.082L879.984 607.98L879.906 607.879L879.828 607.77L879.754 607.66L879.688 607.551L879.621 607.438L879.563 607.32L879.508 607.203L879.457 607.082L879.414 606.961L879.371 606.84L879.336 606.715L879.305 606.586L879.277 606.461L879.258 606.332L879.242 606.203L879.23 606.074L879.223 605.945V605.812V605.684L879.234 605.551L879.246 605.422L879.266 605.289L879.289 605.16L879.32 605.031L879.352 604.902L879.395 604.773L879.438 604.648L879.488 604.52L879.547 604.395L879.605 604.273L879.676 604.148L949.328 483.508L949.34 483.484L949.59 483.031L949.781 482.719L950.195 482.004L950.266 481.887L950.344 481.77L950.422 481.66L950.508 481.551L950.594 481.449L950.684 481.352L950.781 481.258L950.879 481.164L950.973 481.086L951.078 480.961L951.418 480.586L951.77 480.223L952.133 479.879L952.512 479.547L952.902 479.23L953.305 478.93L953.715 478.645L954.141 478.375L954.574 478.125L955.016 477.895L955.469 477.676L955.93 477.48L956.402 477.305L956.883 477.145L957.367 477.004L957.863 476.887L958.363 476.789L958.871 476.711L959.387 476.656L959.906 476.621L960.43 476.609L960.957 476.621L961.477 476.656Z" fill="white"/>
<path d="M961.477 476.656L961.988 476.711L962.496 476.789L963 476.887L963.492 477.004L963.98 477.145L964.461 477.305L964.93 477.48L965.391 477.676L965.844 477.895L966.289 478.125L966.723 478.375L967.145 478.645L967.559 478.93L967.961 479.23L968.348 479.547L968.727 479.879L969.094 480.223L969.445 480.586L969.785 480.961L970.109 481.352L970.199 481.465L970.273 481.551L970.359 481.66L970.438 481.77L970.469 481.816L970.719 482.168L971.004 482.594L971.27 483.031L971.523 483.484L971.758 483.945L971.969 484.398L1041.11 604.148L1041.18 604.273L1041.23 604.395L1041.29 604.52L1041.34 604.648L1041.39 604.773L1041.43 604.902L1041.46 605.031L1041.49 605.16L1041.52 605.289L1041.54 605.422L1041.55 605.551L1041.56 605.684V605.812V605.945L1041.55 606.074L1041.54 606.203L1041.52 606.332L1041.5 606.461L1041.48 606.586L1041.45 606.715L1041.41 606.84L1041.37 606.961L1041.32 607.082L1041.27 607.203L1041.22 607.32L1041.16 607.438L1041.09 607.551L1041.03 607.66L1040.95 607.77L1040.88 607.879L1040.8 607.98L1040.71 608.082L1040.62 608.18L1040.52 608.273L1040.43 608.363L1040.32 608.453L1040.21 608.535L1040.11 608.617L1039.99 608.691L1039.87 608.766L1019.75 620.383L1019.63 620.449L1019.5 620.512L1019.38 620.57L1019.25 620.621L1019.12 620.664L1018.99 620.703L1018.86 620.738L1018.73 620.77L1018.61 620.793L1018.48 620.812L1018.34 620.824L1018.21 620.832L1018.08 620.836H1017.95L1017.82 620.828L1017.69 620.816L1017.56 620.801L1017.44 620.777L1017.31 620.754L1017.18 620.723L1017.06 620.684L1016.93 620.645L1016.81 620.598L1016.7 620.551L1016.57 620.496L1016.46 620.434L1016.34 620.371L1016.23 620.305L1016.12 620.23L1016.02 620.152L1015.91 620.07L1015.81 619.984L1015.71 619.895L1015.62 619.801L1015.53 619.703L1015.45 619.598L1015.36 619.492L1015.28 619.383L1015.2 619.266L1015.13 619.148L960.391 524.332L905.648 619.148L905.578 619.266L905.5 619.383L905.422 619.492L905.336 619.598L905.25 619.703L905.16 619.801L905.066 619.895L904.969 619.984L904.867 620.07L904.762 620.152L904.656 620.23L904.547 620.305L904.437 620.371L904.32 620.434L904.207 620.496L904.086 620.551L903.969 620.598L903.848 620.645L903.723 620.684L903.598 620.723L903.473 620.754L903.344 620.777L903.219 620.801L903.09 620.816L902.961 620.828L902.828 620.836H902.699L902.566 620.832L902.438 620.824L902.305 620.812L902.176 620.793L902.047 620.77L901.918 620.738L901.789 620.703L901.66 620.664L901.531 620.621L901.406 620.57L901.281 620.512L901.156 620.449L901.035 620.383L880.91 608.766L880.793 608.691L880.676 608.617L880.566 608.535L880.457 608.453L880.355 608.363L880.258 608.273L880.16 608.18L880.07 608.082L879.984 607.98L879.906 607.879L879.828 607.77L879.754 607.66L879.688 607.551L879.621 607.438L879.563 607.32L879.508 607.203L879.457 607.082L879.414 606.961L879.371 606.84L879.336 606.715L879.305 606.586L879.277 606.461L879.258 606.332L879.242 606.203L879.23 606.074L879.223 605.945V605.812V605.684L879.234 605.551L879.246 605.422L879.266 605.289L879.289 605.16L879.32 605.031L879.352 604.902L879.395 604.773L879.438 604.648L879.488 604.52L879.547 604.395L879.605 604.273L879.676 604.148L949.328 483.508L949.34 483.484L949.59 483.031L949.781 482.719L950.195 482.004L950.266 481.887L950.344 481.77L950.422 481.66L950.508 481.551L950.594 481.449L950.684 481.352L950.781 481.258L950.879 481.164L950.973 481.086L951.078 480.961L951.418 480.586L951.77 480.223L952.133 479.879L952.512 479.547L952.902 479.23L953.305 478.93L953.715 478.645L954.141 478.375L954.574 478.125L955.016 477.895L955.469 477.676L955.93 477.48L956.402 477.305L956.883 477.145L957.367 477.004L957.863 476.887L958.363 476.789L958.871 476.711L959.387 476.656L959.906 476.621L960.43 476.609L960.957 476.621L961.477 476.656Z" fill="url(#paint0_radial_0_3)"/>
</g>
</g>
<defs>
<filter id="filter0_d_0_3" x="863.832" y="435.09" width="192.336" height="174.227" filterUnits="userSpaceOnUse" color-interpolation-filters="sRGB">
<feFlood flood-opacity="0" result="BackgroundImageFix"/>
<feColorMatrix in="SourceAlpha" type="matrix" values="0 0 0 0 0 0 0 0 0 0 0 0 0 0 0 0 0 0 127 0" result="hardAlpha"/>
<feOffset/>
<feGaussianBlur stdDeviation="7.5"/>
<feComposite in2="hardAlpha" operator="out"/>
<feColorMatrix type="matrix" values="0 0 0 0 0 0 0 0 0 0 0 0 0 0 0 0 0 0 0.5 0"/>
<feBlend mode="normal" in2="BackgroundImageFix" result="effect1_dropShadow_0_3"/>
<feBlend mode="normal" in="SourceGraphic" in2="effect1_dropShadow_0_3" result="shape"/>
</filter>
<filter id="filter1_d_0_3" x="864.223" y="447.59" width="192.336" height="174.227" filterUnits="userSpaceOnUse" color-interpolation-filters="sRGB">
<feFlood flood-opacity="0" result="BackgroundImageFix"/>
<feColorMatrix in="SourceAlpha" type="matrix" values="0 0 0 0 0 0 0 0 0 0 0 0 0 0 0 0 0 0 127 0" result="hardAlpha"/>
<feOffset/>
<feGaussianBlur stdDeviation="7.5"/>
<feComposite in2="hardAlpha" operator="out"/>
<feColorMatrix type="matrix" values="0 0 0 0 0 0 0 0 0 0 0 0 0 0 0 0 0 0 0.5 0"/>
<feBlend mode="normal" in2="BackgroundImageFix" result="effect1_dropShadow_0_3"/>
<feBlend mode="normal" in="SourceGraphic" in2="effect1_dropShadow_0_3" result="shape"/>
</filter>
<filter id="filter2_d_0_3" x="864.223" y="461.609" width="192.336" height="174.227" filterUnits="userSpaceOnUse" color-interpolation-filters="sRGB">
<feFlood flood-opacity="0" result="BackgroundImageFix"/>
<feColorMatrix in="SourceAlpha" type="matrix" values="0 0 0 0 0 0 0 0 0 0 0 0 0 0 0 0 0 0 127 0" result="hardAlpha"/>
<feOffset/>
<feGaussianBlur stdDeviation="7.5"/>
<feComposite in2="hardAlpha" operator="out"/>
<feColorMatrix type="matrix" values="0 0 0 0 0 0 0 0 0 0 0 0 0 0 0 0 0 0 0.5 0"/>
<feBlend mode="normal" in2="BackgroundImageFix" result="effect1_dropShadow_0_3"/>
<feBlend mode="normal" in="SourceGraphic" in2="effect1_dropShadow_0_3" result="shape"/>
</filter>
<radialGradient id="paint0_radial_0_3" cx="0" cy="0" r="1" gradientUnits="userSpaceOnUse" gradientTransform="translate(960.391 488.676) scale(148.219 148.219)">
<stop stop-color="#008DFF"/>
<stop offset="1" stop-color="#00488C"/>
</radialGradient>
<clipPath id="clip0_0_3">
<rect width="1920" height="1080" fill="white"/>
</clipPath>
</defs>
</svg>
