<svg xmlns="http://www.w3.org/2000/svg" width="32" height="32" version="1">
 <path fill="#e4e4e4" d="m27 28.5v-25c0-0.831-0.669-1.5-1.5-1.5h-19c-0.831 0-1.5 0.669-1.5 1.5v25c0 0.831 0.669 1.5 1.5 1.5h19c0.831 0 1.5-0.669 1.5-1.5z"/>
 <path fill="#fff" opacity=".1" d="m6.5 2c-0.831 0-1.5 0.669-1.5 1.5v1c0-0.831 0.669-1.5 1.5-1.5h19c0.831 0 1.5 0.669 1.5 1.5v-1c0-0.831-0.669-1.5-1.5-1.5z"/>
 <path opacity=".2" d="m5 28.5v1c0 0.831 0.669 1.5 1.5 1.5h19c0.831 0 1.5-0.669 1.5-1.5v-1c0 0.831-0.669 1.5-1.5 1.5h-19c-0.831 0-1.5-0.669-1.5-1.5z"/>
 
 

 <rect style="opacity:0.2" width="16" height="2" x="8" y="5"/>
 <rect style="opacity:0.2" width="16" height="2" x="8" y="10"/>
 <rect style="opacity:0.2" width="9" height="2" x="8" y="15"/>
</svg>