<?xml version="1.0" encoding="UTF-8" standalone="no"?>
<!DOCTYPE svg PUBLIC "-//W3C//DTD SVG 1.1//EN" "http://www.w3.org/Graphics/SVG/1.1/DTD/svg11.dtd">
<svg version="1.1" xmlns="http://www.w3.org/2000/svg" xmlns:xlink="http://www.w3.org/1999/xlink" preserveAspectRatio="xMidYMid meet" viewBox="0 0 640 640" width="640" height="640">
  <defs>
    <path d="M321.78 88.95L323.09 89.09L324.39 89.29L325.68 89.54L326.94 89.84L328.19 90.2L329.42 90.6L330.62 91.06L331.8 91.56L332.96 92.11L334.1 92.71L335.21 93.35L336.29 94.04L337.35 94.76L338.38 95.53L339.37 96.34L340.34 97.19L341.28 98.08L342.18 99.01L343.05 99.97L343.88 100.96L344.11 101.26L344.3 101.48L344.52 101.75L344.72 102.04L344.8 102.15L345.44 103.05L346.17 104.15L346.85 105.27L347.5 106.42L348.1 107.6L348.64 108.77L525.63 415.33L525.81 415.64L525.96 415.96L526.11 416.28L526.24 416.6L526.35 416.93L526.46 417.26L526.54 417.59L526.62 417.92L526.68 418.25L526.73 418.59L526.76 418.92L526.79 419.26L526.79 419.59L526.79 419.92L526.77 420.26L526.74 420.59L526.7 420.92L526.65 421.25L526.58 421.57L526.5 421.89L526.41 422.21L526.3 422.53L526.19 422.84L526.06 423.15L525.92 423.45L525.77 423.74L525.6 424.04L525.43 424.32L525.24 424.6L525.04 424.87L524.84 425.14L524.62 425.4L524.39 425.65L524.14 425.89L523.89 426.12L523.63 426.35L523.35 426.56L523.07 426.77L522.77 426.96L522.47 427.14L470.95 456.89L470.64 457.06L470.32 457.22L470 457.36L469.68 457.49L469.35 457.61L469.02 457.71L468.69 457.8L468.36 457.87L468.03 457.94L467.7 457.98L467.36 458.02L467.03 458.04L466.69 458.05L466.36 458.04L466.02 458.03L465.69 458L465.36 457.96L465.04 457.9L464.71 457.83L464.39 457.75L464.07 457.66L463.75 457.56L463.44 457.44L463.14 457.31L462.83 457.17L462.54 457.02L462.24 456.86L461.96 456.68L461.68 456.5L461.41 456.3L461.14 456.09L460.88 455.87L460.63 455.64L460.39 455.4L460.16 455.15L459.94 454.88L459.72 454.61L459.52 454.32L459.32 454.03L459.14 453.72L319 211L178.86 453.72L178.68 454.03L178.48 454.32L178.28 454.61L178.06 454.88L177.84 455.15L177.61 455.4L177.37 455.64L177.12 455.87L176.86 456.09L176.59 456.3L176.32 456.5L176.04 456.68L175.76 456.86L175.46 457.02L175.17 457.17L174.86 457.31L174.56 457.44L174.25 457.56L173.93 457.66L173.61 457.75L173.29 457.83L172.96 457.9L172.64 457.96L172.31 458L171.98 458.03L171.64 458.04L171.31 458.05L170.97 458.04L170.64 458.02L170.3 457.98L169.97 457.94L169.64 457.87L169.31 457.8L168.98 457.71L168.65 457.61L168.32 457.49L168 457.36L167.68 457.22L167.36 457.06L167.05 456.89L115.53 427.14L115.23 426.96L114.93 426.77L114.65 426.56L114.37 426.35L114.11 426.12L113.86 425.89L113.61 425.65L113.38 425.4L113.16 425.14L112.96 424.87L112.76 424.6L112.57 424.32L112.4 424.04L112.23 423.74L112.08 423.45L111.94 423.15L111.81 422.84L111.7 422.53L111.59 422.21L111.5 421.89L111.42 421.57L111.35 421.25L111.3 420.92L111.26 420.59L111.23 420.26L111.21 419.92L111.21 419.59L111.21 419.26L111.24 418.92L111.27 418.59L111.32 418.25L111.38 417.92L111.46 417.59L111.54 417.26L111.65 416.93L111.76 416.6L111.89 416.28L112.04 415.96L112.19 415.64L112.37 415.33L290.68 106.49L290.71 106.42L291.35 105.27L291.84 104.47L292.9 102.64L293.08 102.33L293.28 102.04L293.48 101.75L293.7 101.48L293.92 101.22L294.15 100.96L294.4 100.72L294.65 100.49L294.89 100.29L295.16 99.97L296.03 99.01L296.93 98.08L297.86 97.19L298.83 96.34L299.83 95.53L300.86 94.76L301.91 94.04L303 93.35L304.11 92.71L305.24 92.11L306.4 91.56L307.58 91.06L308.79 90.6L310.02 90.2L311.26 89.84L312.53 89.54L313.81 89.29L315.11 89.09L316.43 88.95L317.76 88.86L319.1 88.83L320.45 88.86L321.78 88.95Z" id="bhIu78vjX"></path>
    <path d="M322.78 120.95L324.09 121.09L325.39 121.29L326.68 121.54L327.94 121.84L329.19 122.2L330.42 122.6L331.62 123.06L332.8 123.56L333.96 124.11L335.1 124.71L336.21 125.35L337.29 126.04L338.35 126.76L339.38 127.53L340.37 128.34L341.34 129.19L342.28 130.08L343.18 131.01L344.05 131.97L344.88 132.96L345.11 133.26L345.3 133.48L345.52 133.75L345.72 134.04L345.8 134.15L346.44 135.05L347.17 136.15L347.85 137.27L348.5 138.42L349.1 139.6L349.64 140.77L526.63 447.33L526.81 447.64L526.96 447.96L527.11 448.28L527.24 448.6L527.35 448.93L527.46 449.26L527.54 449.59L527.62 449.92L527.68 450.25L527.73 450.59L527.76 450.92L527.79 451.26L527.79 451.59L527.79 451.92L527.77 452.26L527.74 452.59L527.7 452.92L527.65 453.25L527.58 453.57L527.5 453.89L527.41 454.21L527.3 454.53L527.19 454.84L527.06 455.15L526.92 455.45L526.77 455.74L526.6 456.04L526.43 456.32L526.24 456.6L526.04 456.87L525.84 457.14L525.62 457.4L525.39 457.65L525.14 457.89L524.89 458.12L524.63 458.35L524.35 458.56L524.07 458.77L523.77 458.96L523.47 459.14L471.95 488.89L471.64 489.06L471.32 489.22L471 489.36L470.68 489.49L470.35 489.61L470.02 489.71L469.69 489.8L469.36 489.87L469.03 489.94L468.7 489.98L468.36 490.02L468.03 490.04L467.69 490.05L467.36 490.04L467.02 490.03L466.69 490L466.36 489.96L466.04 489.9L465.71 489.83L465.39 489.75L465.07 489.66L464.75 489.56L464.44 489.44L464.14 489.31L463.83 489.17L463.54 489.02L463.24 488.86L462.96 488.68L462.68 488.5L462.41 488.3L462.14 488.09L461.88 487.87L461.63 487.64L461.39 487.4L461.16 487.15L460.94 486.88L460.72 486.61L460.52 486.32L460.32 486.03L460.14 485.72L320 243L179.86 485.72L179.68 486.03L179.48 486.32L179.28 486.61L179.06 486.88L178.84 487.15L178.61 487.4L178.37 487.64L178.12 487.87L177.86 488.09L177.59 488.3L177.32 488.5L177.04 488.68L176.76 488.86L176.46 489.02L176.17 489.17L175.86 489.31L175.56 489.44L175.25 489.56L174.93 489.66L174.61 489.75L174.29 489.83L173.96 489.9L173.64 489.96L173.31 490L172.98 490.03L172.64 490.04L172.31 490.05L171.97 490.04L171.64 490.02L171.3 489.98L170.97 489.94L170.64 489.87L170.31 489.8L169.98 489.71L169.65 489.61L169.32 489.49L169 489.36L168.68 489.22L168.36 489.06L168.05 488.89L116.53 459.14L116.23 458.96L115.93 458.77L115.65 458.56L115.37 458.35L115.11 458.12L114.86 457.89L114.61 457.65L114.38 457.4L114.16 457.14L113.96 456.87L113.76 456.6L113.57 456.32L113.4 456.04L113.23 455.74L113.08 455.45L112.94 455.15L112.81 454.84L112.7 454.53L112.59 454.21L112.5 453.89L112.42 453.57L112.35 453.25L112.3 452.92L112.26 452.59L112.23 452.26L112.21 451.92L112.21 451.59L112.21 451.26L112.24 450.92L112.27 450.59L112.32 450.25L112.38 449.92L112.46 449.59L112.54 449.26L112.65 448.93L112.76 448.6L112.89 448.28L113.04 447.96L113.19 447.64L113.37 447.33L291.68 138.49L291.71 138.42L292.35 137.27L292.84 136.47L293.9 134.64L294.08 134.33L294.28 134.04L294.48 133.75L294.7 133.48L294.92 133.22L295.15 132.96L295.4 132.72L295.65 132.49L295.89 132.29L296.16 131.97L297.03 131.01L297.93 130.08L298.86 129.19L299.83 128.34L300.83 127.53L301.86 126.76L302.91 126.04L304 125.35L305.11 124.71L306.24 124.11L307.4 123.56L308.58 123.06L309.79 122.6L311.02 122.2L312.26 121.84L313.53 121.54L314.81 121.29L316.11 121.09L317.43 120.95L318.76 120.86L320.1 120.83L321.45 120.86L322.78 120.95Z" id="a1W6ySDqkS"></path>
    <path d="M322.78 156.84L324.09 156.98L325.39 157.18L326.68 157.43L327.94 157.73L329.19 158.09L330.42 158.5L331.62 158.95L332.8 159.45L333.96 160.01L335.1 160.6L336.21 161.24L337.29 161.93L338.35 162.66L339.38 163.43L340.37 164.24L341.34 165.09L342.28 165.97L343.18 166.9L344.05 167.86L344.88 168.86L345.11 169.15L345.3 169.37L345.52 169.65L345.72 169.93L345.8 170.05L346.44 170.95L347.17 172.04L347.85 173.16L348.5 174.32L349.1 175.5L349.64 176.66L526.63 483.22L526.81 483.54L526.96 483.85L527.11 484.17L527.24 484.5L527.35 484.82L527.46 485.15L527.54 485.48L527.62 485.81L527.68 486.14L527.73 486.48L527.76 486.81L527.79 487.15L527.79 487.48L527.79 487.82L527.77 488.15L527.74 488.48L527.7 488.81L527.65 489.14L527.58 489.46L527.5 489.79L527.41 490.11L527.3 490.42L527.19 490.73L527.06 491.04L526.92 491.34L526.77 491.64L526.6 491.93L526.43 492.21L526.24 492.49L526.04 492.77L525.84 493.03L525.62 493.29L525.39 493.54L525.14 493.78L524.89 494.01L524.63 494.24L524.35 494.45L524.07 494.66L523.77 494.85L523.47 495.04L471.95 524.78L471.64 524.95L471.32 525.11L471 525.26L470.68 525.39L470.35 525.5L470.02 525.6L469.69 525.69L469.36 525.77L469.03 525.83L468.7 525.88L468.36 525.91L468.03 525.93L467.69 525.94L467.36 525.94L467.02 525.92L466.69 525.89L466.36 525.85L466.04 525.79L465.71 525.73L465.39 525.65L465.07 525.55L464.75 525.45L464.44 525.33L464.14 525.21L463.83 525.07L463.54 524.91L463.24 524.75L462.96 524.58L462.68 524.39L462.41 524.19L462.14 523.98L461.88 523.76L461.63 523.53L461.39 523.29L461.16 523.04L460.94 522.77L460.72 522.5L460.52 522.22L460.32 521.92L460.14 521.62L320 278.89L179.86 521.62L179.68 521.92L179.48 522.22L179.28 522.5L179.06 522.77L178.84 523.04L178.61 523.29L178.37 523.53L178.12 523.76L177.86 523.98L177.59 524.19L177.32 524.39L177.04 524.58L176.76 524.75L176.46 524.91L176.17 525.07L175.86 525.21L175.56 525.33L175.25 525.45L174.93 525.55L174.61 525.65L174.29 525.73L173.96 525.79L173.64 525.85L173.31 525.89L172.98 525.92L172.64 525.94L172.31 525.94L171.97 525.93L171.64 525.91L171.3 525.88L170.97 525.83L170.64 525.77L170.31 525.69L169.98 525.6L169.65 525.5L169.32 525.39L169 525.26L168.68 525.11L168.36 524.95L168.05 524.78L116.53 495.04L116.23 494.85L115.93 494.66L115.65 494.45L115.37 494.24L115.11 494.01L114.86 493.78L114.61 493.54L114.38 493.29L114.16 493.03L113.96 492.77L113.76 492.49L113.57 492.21L113.4 491.93L113.23 491.64L113.08 491.34L112.94 491.04L112.81 490.73L112.7 490.42L112.59 490.11L112.5 489.79L112.42 489.46L112.35 489.14L112.3 488.81L112.26 488.48L112.23 488.15L112.21 487.82L112.21 487.48L112.21 487.15L112.24 486.81L112.27 486.48L112.32 486.14L112.38 485.81L112.46 485.48L112.54 485.15L112.65 484.82L112.76 484.5L112.89 484.17L113.04 483.85L113.19 483.54L113.37 483.22L291.68 174.38L291.71 174.32L292.35 173.16L292.84 172.36L293.9 170.53L294.08 170.23L294.28 169.93L294.48 169.65L294.7 169.37L294.92 169.11L295.15 168.86L295.4 168.62L295.65 168.38L295.89 168.18L296.16 167.86L297.03 166.9L297.93 165.97L298.86 165.09L299.83 164.24L300.83 163.43L301.86 162.66L302.91 161.93L304 161.24L305.11 160.6L306.24 160.01L307.4 159.45L308.58 158.95L309.79 158.5L311.02 158.09L312.26 157.73L313.53 157.43L314.81 157.18L316.11 156.98L317.43 156.84L318.76 156.75L320.1 156.72L321.45 156.75L322.78 156.84Z" id="f3Jsq0mU3M"></path>
    <radialGradient id="gradientb3tNRMTIS" gradientUnits="userSpaceOnUse" cx="320" cy="187.61" dx="311.4" dy="566.95" r="379.44">
      <stop style="stop-color: #008dff;stop-opacity: 1" offset="0%"></stop>
      <stop style="stop-color: #00488c;stop-opacity: 1" offset="100%"></stop>
    </radialGradient>
  </defs>
  <g>
    <g>
      <g>
        <g>
          <filter id="shadow10433053" x="2.21" y="-20.17" width="633.59" height="587.22" filterUnits="userSpaceOnUse" primitiveUnits="userSpaceOnUse">
            <feFlood></feFlood>
            <feComposite in2="SourceAlpha" operator="in"></feComposite>
            <feGaussianBlur stdDeviation="7.07"></feGaussianBlur>
            <feOffset dx="0" dy="0" result="afterOffset"></feOffset>
            <feFlood flood-color="#000000" flood-opacity="0.5"></feFlood>
            <feComposite in2="afterOffset" operator="in"></feComposite>
            <feMorphology operator="dilate" radius="4"></feMorphology>
            <feComposite in2="SourceAlpha" operator="out"></feComposite>
          </filter>
          <path d="M321.78 88.95L323.09 89.09L324.39 89.29L325.68 89.54L326.94 89.84L328.19 90.2L329.42 90.6L330.62 91.06L331.8 91.56L332.96 92.11L334.1 92.71L335.21 93.35L336.29 94.04L337.35 94.76L338.38 95.53L339.37 96.34L340.34 97.19L341.28 98.08L342.18 99.01L343.05 99.97L343.88 100.96L344.11 101.26L344.3 101.48L344.52 101.75L344.72 102.04L344.8 102.15L345.44 103.05L346.17 104.15L346.85 105.27L347.5 106.42L348.1 107.6L348.64 108.77L525.63 415.33L525.81 415.64L525.96 415.96L526.11 416.28L526.24 416.6L526.35 416.93L526.46 417.26L526.54 417.59L526.62 417.92L526.68 418.25L526.73 418.59L526.76 418.92L526.79 419.26L526.79 419.59L526.79 419.92L526.77 420.26L526.74 420.59L526.7 420.92L526.65 421.25L526.58 421.57L526.5 421.89L526.41 422.21L526.3 422.53L526.19 422.84L526.06 423.15L525.92 423.45L525.77 423.74L525.6 424.04L525.43 424.32L525.24 424.6L525.04 424.87L524.84 425.14L524.62 425.4L524.39 425.65L524.14 425.89L523.89 426.12L523.63 426.35L523.35 426.56L523.07 426.77L522.77 426.96L522.47 427.14L470.95 456.89L470.64 457.06L470.32 457.22L470 457.36L469.68 457.49L469.35 457.61L469.02 457.71L468.69 457.8L468.36 457.87L468.03 457.94L467.7 457.98L467.36 458.02L467.03 458.04L466.69 458.05L466.36 458.04L466.02 458.03L465.69 458L465.36 457.96L465.04 457.9L464.71 457.83L464.39 457.75L464.07 457.66L463.75 457.56L463.44 457.44L463.14 457.31L462.83 457.17L462.54 457.02L462.24 456.86L461.96 456.68L461.68 456.5L461.41 456.3L461.14 456.09L460.88 455.87L460.63 455.64L460.39 455.4L460.16 455.15L459.94 454.88L459.72 454.61L459.52 454.32L459.32 454.03L459.14 453.72L319 211L178.86 453.72L178.68 454.03L178.48 454.32L178.28 454.61L178.06 454.88L177.84 455.15L177.61 455.4L177.37 455.64L177.12 455.87L176.86 456.09L176.59 456.3L176.32 456.5L176.04 456.68L175.76 456.86L175.46 457.02L175.17 457.17L174.86 457.31L174.56 457.44L174.25 457.56L173.93 457.66L173.61 457.75L173.29 457.83L172.96 457.9L172.64 457.96L172.31 458L171.98 458.03L171.64 458.04L171.31 458.05L170.97 458.04L170.64 458.02L170.3 457.98L169.97 457.94L169.64 457.87L169.31 457.8L168.98 457.71L168.65 457.61L168.32 457.49L168 457.36L167.68 457.22L167.36 457.06L167.05 456.89L115.53 427.14L115.23 426.96L114.93 426.77L114.65 426.56L114.37 426.35L114.11 426.12L113.86 425.89L113.61 425.65L113.38 425.4L113.16 425.14L112.96 424.87L112.76 424.6L112.57 424.32L112.4 424.04L112.23 423.74L112.08 423.45L111.94 423.15L111.81 422.84L111.7 422.53L111.59 422.21L111.5 421.89L111.42 421.57L111.35 421.25L111.3 420.92L111.26 420.59L111.23 420.26L111.21 419.92L111.21 419.59L111.21 419.26L111.24 418.92L111.27 418.59L111.32 418.25L111.38 417.92L111.46 417.59L111.54 417.26L111.65 416.93L111.76 416.6L111.89 416.28L112.04 415.96L112.19 415.64L112.37 415.33L290.68 106.49L290.71 106.42L291.35 105.27L291.84 104.47L292.9 102.64L293.08 102.33L293.28 102.04L293.48 101.75L293.7 101.48L293.92 101.22L294.15 100.96L294.4 100.72L294.65 100.49L294.89 100.29L295.16 99.97L296.03 99.01L296.93 98.08L297.86 97.19L298.83 96.34L299.83 95.53L300.86 94.76L301.91 94.04L303 93.35L304.11 92.71L305.24 92.11L306.4 91.56L307.58 91.06L308.79 90.6L310.02 90.2L311.26 89.84L312.53 89.54L313.81 89.29L315.11 89.09L316.43 88.95L317.76 88.86L319.1 88.83L320.45 88.86L321.78 88.95Z" id="bhfhtwY5r" fill="white" fill-opacity="1" filter="url(#shadow10433053)"></path>
        </g>
        <use xlink:href="#bhIu78vjX" opacity="1" fill="#414141" fill-opacity="1"></use>
      </g>
      <g>
        <g>
          <filter id="shadow1162697" x="3.21" y="11.83" width="633.59" height="587.22" filterUnits="userSpaceOnUse" primitiveUnits="userSpaceOnUse">
            <feFlood></feFlood>
            <feComposite in2="SourceAlpha" operator="in"></feComposite>
            <feGaussianBlur stdDeviation="7.07"></feGaussianBlur>
            <feOffset dx="0" dy="0" result="afterOffset"></feOffset>
            <feFlood flood-color="#000000" flood-opacity="0.5"></feFlood>
            <feComposite in2="afterOffset" operator="in"></feComposite>
            <feMorphology operator="dilate" radius="4"></feMorphology>
            <feComposite in2="SourceAlpha" operator="out"></feComposite>
          </filter>
          <path d="M322.78 120.95L324.09 121.09L325.39 121.29L326.68 121.54L327.94 121.84L329.19 122.2L330.42 122.6L331.62 123.06L332.8 123.56L333.96 124.11L335.1 124.71L336.21 125.35L337.29 126.04L338.35 126.76L339.38 127.53L340.37 128.34L341.34 129.19L342.28 130.08L343.18 131.01L344.05 131.97L344.88 132.96L345.11 133.26L345.3 133.48L345.52 133.75L345.72 134.04L345.8 134.15L346.44 135.05L347.17 136.15L347.85 137.27L348.5 138.42L349.1 139.6L349.64 140.77L526.63 447.33L526.81 447.64L526.96 447.96L527.11 448.28L527.24 448.6L527.35 448.93L527.46 449.26L527.54 449.59L527.62 449.92L527.68 450.25L527.73 450.59L527.76 450.92L527.79 451.26L527.79 451.59L527.79 451.92L527.77 452.26L527.74 452.59L527.7 452.92L527.65 453.25L527.58 453.57L527.5 453.89L527.41 454.21L527.3 454.53L527.19 454.84L527.06 455.15L526.92 455.45L526.77 455.74L526.6 456.04L526.43 456.32L526.24 456.6L526.04 456.87L525.84 457.14L525.62 457.4L525.39 457.65L525.14 457.89L524.89 458.12L524.63 458.35L524.35 458.56L524.07 458.77L523.77 458.96L523.47 459.14L471.95 488.89L471.64 489.06L471.32 489.22L471 489.36L470.68 489.49L470.35 489.61L470.02 489.71L469.69 489.8L469.36 489.87L469.03 489.94L468.7 489.98L468.36 490.02L468.03 490.04L467.69 490.05L467.36 490.04L467.02 490.03L466.69 490L466.36 489.96L466.04 489.9L465.71 489.83L465.39 489.75L465.07 489.66L464.75 489.56L464.44 489.44L464.14 489.31L463.83 489.17L463.54 489.02L463.24 488.86L462.96 488.68L462.68 488.5L462.41 488.3L462.14 488.09L461.88 487.87L461.63 487.64L461.39 487.4L461.16 487.15L460.94 486.88L460.72 486.61L460.52 486.32L460.32 486.03L460.14 485.72L320 243L179.86 485.72L179.68 486.03L179.48 486.32L179.28 486.61L179.06 486.88L178.84 487.15L178.61 487.4L178.37 487.64L178.12 487.87L177.86 488.09L177.59 488.3L177.32 488.5L177.04 488.68L176.76 488.86L176.46 489.02L176.17 489.17L175.86 489.31L175.56 489.44L175.25 489.56L174.93 489.66L174.61 489.75L174.29 489.83L173.96 489.9L173.64 489.96L173.31 490L172.98 490.03L172.64 490.04L172.31 490.05L171.97 490.04L171.64 490.02L171.3 489.98L170.97 489.94L170.64 489.87L170.31 489.8L169.98 489.71L169.65 489.61L169.32 489.49L169 489.36L168.68 489.22L168.36 489.06L168.05 488.89L116.53 459.14L116.23 458.96L115.93 458.77L115.65 458.56L115.37 458.35L115.11 458.12L114.86 457.89L114.61 457.65L114.38 457.4L114.16 457.14L113.96 456.87L113.76 456.6L113.57 456.32L113.4 456.04L113.23 455.74L113.08 455.45L112.94 455.15L112.81 454.84L112.7 454.53L112.59 454.21L112.5 453.89L112.42 453.57L112.35 453.25L112.3 452.92L112.26 452.59L112.23 452.26L112.21 451.92L112.21 451.59L112.21 451.26L112.24 450.92L112.27 450.59L112.32 450.25L112.38 449.92L112.46 449.59L112.54 449.26L112.65 448.93L112.76 448.6L112.89 448.28L113.04 447.96L113.19 447.64L113.37 447.33L291.68 138.49L291.71 138.42L292.35 137.27L292.84 136.47L293.9 134.64L294.08 134.33L294.28 134.04L294.48 133.75L294.7 133.48L294.92 133.22L295.15 132.96L295.4 132.72L295.65 132.49L295.89 132.29L296.16 131.97L297.03 131.01L297.93 130.08L298.86 129.19L299.83 128.34L300.83 127.53L301.86 126.76L302.91 126.04L304 125.35L305.11 124.71L306.24 124.11L307.4 123.56L308.58 123.06L309.79 122.6L311.02 122.2L312.26 121.84L313.53 121.54L314.81 121.29L316.11 121.09L317.43 120.95L318.76 120.86L320.1 120.83L321.45 120.86L322.78 120.95Z" id="b2EA9bFtJr" fill="white" fill-opacity="1" filter="url(#shadow1162697)"></path>
        </g>
        <use xlink:href="#a1W6ySDqkS" opacity="1" fill="#636363" fill-opacity="1"></use>
      </g>
      <g>
        <g>
          <filter id="shadow3710458" x="3.21" y="47.72" width="633.59" height="587.22" filterUnits="userSpaceOnUse" primitiveUnits="userSpaceOnUse">
            <feFlood></feFlood>
            <feComposite in2="SourceAlpha" operator="in"></feComposite>
            <feGaussianBlur stdDeviation="7.07"></feGaussianBlur>
            <feOffset dx="0" dy="0" result="afterOffset"></feOffset>
            <feFlood flood-color="#000000" flood-opacity="0.5"></feFlood>
            <feComposite in2="afterOffset" operator="in"></feComposite>
            <feMorphology operator="dilate" radius="4"></feMorphology>
            <feComposite in2="SourceAlpha" operator="out"></feComposite>
          </filter>
          <path d="M322.78 156.84L324.09 156.98L325.39 157.18L326.68 157.43L327.94 157.73L329.19 158.09L330.42 158.5L331.62 158.95L332.8 159.45L333.96 160.01L335.1 160.6L336.21 161.24L337.29 161.93L338.35 162.66L339.38 163.43L340.37 164.24L341.34 165.09L342.28 165.97L343.18 166.9L344.05 167.86L344.88 168.86L345.11 169.15L345.3 169.37L345.52 169.65L345.72 169.93L345.8 170.05L346.44 170.95L347.17 172.04L347.85 173.16L348.5 174.32L349.1 175.5L349.64 176.66L526.63 483.22L526.81 483.54L526.96 483.85L527.11 484.17L527.24 484.5L527.35 484.82L527.46 485.15L527.54 485.48L527.62 485.81L527.68 486.14L527.73 486.48L527.76 486.81L527.79 487.15L527.79 487.48L527.79 487.82L527.77 488.15L527.74 488.48L527.7 488.81L527.65 489.14L527.58 489.46L527.5 489.79L527.41 490.11L527.3 490.42L527.19 490.73L527.06 491.04L526.92 491.34L526.77 491.64L526.6 491.93L526.43 492.21L526.24 492.49L526.04 492.77L525.84 493.03L525.62 493.29L525.39 493.54L525.14 493.78L524.89 494.01L524.63 494.24L524.35 494.45L524.07 494.66L523.77 494.85L523.47 495.04L471.95 524.78L471.64 524.95L471.32 525.11L471 525.26L470.68 525.39L470.35 525.5L470.02 525.6L469.69 525.69L469.36 525.77L469.03 525.83L468.7 525.88L468.36 525.91L468.03 525.93L467.69 525.94L467.36 525.94L467.02 525.92L466.69 525.89L466.36 525.85L466.04 525.79L465.71 525.73L465.39 525.65L465.07 525.55L464.75 525.45L464.44 525.33L464.14 525.21L463.83 525.07L463.54 524.91L463.24 524.75L462.96 524.58L462.68 524.39L462.41 524.19L462.14 523.98L461.88 523.76L461.63 523.53L461.39 523.29L461.16 523.04L460.94 522.77L460.72 522.5L460.52 522.22L460.32 521.92L460.14 521.62L320 278.89L179.86 521.62L179.68 521.92L179.48 522.22L179.28 522.5L179.06 522.77L178.84 523.04L178.61 523.29L178.37 523.53L178.12 523.76L177.86 523.98L177.59 524.19L177.32 524.39L177.04 524.58L176.76 524.75L176.46 524.91L176.17 525.07L175.86 525.21L175.56 525.33L175.25 525.45L174.93 525.55L174.61 525.65L174.29 525.73L173.96 525.79L173.64 525.85L173.31 525.89L172.98 525.92L172.64 525.94L172.31 525.94L171.97 525.93L171.64 525.91L171.3 525.88L170.97 525.83L170.64 525.77L170.31 525.69L169.98 525.6L169.65 525.5L169.32 525.39L169 525.26L168.68 525.11L168.36 524.95L168.05 524.78L116.53 495.04L116.23 494.85L115.93 494.66L115.65 494.45L115.37 494.24L115.11 494.01L114.86 493.78L114.61 493.54L114.38 493.29L114.16 493.03L113.96 492.77L113.76 492.49L113.57 492.21L113.4 491.93L113.23 491.64L113.08 491.34L112.94 491.04L112.81 490.73L112.7 490.42L112.59 490.11L112.5 489.79L112.42 489.46L112.35 489.14L112.3 488.81L112.26 488.48L112.23 488.15L112.21 487.82L112.21 487.48L112.21 487.15L112.24 486.81L112.27 486.48L112.32 486.14L112.38 485.81L112.46 485.48L112.54 485.15L112.65 484.82L112.76 484.5L112.89 484.17L113.04 483.85L113.19 483.54L113.37 483.22L291.68 174.38L291.71 174.32L292.35 173.16L292.84 172.36L293.9 170.53L294.08 170.23L294.28 169.93L294.48 169.65L294.7 169.37L294.92 169.11L295.15 168.86L295.4 168.62L295.65 168.38L295.89 168.18L296.16 167.86L297.03 166.9L297.93 165.97L298.86 165.09L299.83 164.24L300.83 163.43L301.86 162.66L302.91 161.93L304 161.24L305.11 160.6L306.24 160.01L307.4 159.45L308.58 158.95L309.79 158.5L311.02 158.09L312.26 157.73L313.53 157.43L314.81 157.18L316.11 156.98L317.43 156.84L318.76 156.75L320.1 156.72L321.45 156.75L322.78 156.84Z" id="e9nFLrHzj" fill="white" fill-opacity="1" filter="url(#shadow3710458)"></path>
        </g>
        <use xlink:href="#f3Jsq0mU3M" opacity="1" fill="url(#gradientb3tNRMTIS)"></use>
      </g>
    </g>
  </g>
</svg>