<svg width="512" height="512" viewBox="0 0 512 512" fill="none" xmlns="http://www.w3.org/2000/svg">
  <g clip-path="url(#clip0_402_2)">
    <path
      d="M257.424 71.16L258.472 71.272L259.512 71.432L260.544 71.632L261.552 71.872L262.552 72.16L263.536 72.48L264.496 72.848L265.44 73.248L266.368 73.688L267.28 74.168L268.168 74.68L269.032 75.232L269.88 75.808L270.704 76.424L271.496 77.072L272.272 77.752L273.024 78.464L273.744 79.208L274.44 79.976L275.104 80.768L275.288 81.008L275.44 81.184L275.616 81.4L275.776 81.632L275.84 81.72L276.352 82.44L276.936 83.32L277.48 84.216L278 85.136L278.48 86.08L278.912 87.016L420.504 332.264L420.648 332.512L420.768 332.768L420.888 333.024L420.992 333.28L421.08 333.544L421.168 333.808L421.232 334.072L421.296 334.336L421.344 334.6L421.384 334.872L421.408 335.136L421.432 335.408V335.672V335.936L421.416 336.208L421.392 336.472L421.36 336.736L421.32 337L421.264 337.256L421.2 337.512L421.128 337.768L421.04 338.024L420.952 338.272L420.848 338.52L420.736 338.76L420.616 338.992L420.48 339.232L420.344 339.456L420.192 339.68L420.032 339.896L419.872 340.112L419.696 340.32L419.512 340.52L419.312 340.712L419.112 340.896L418.904 341.08L418.68 341.248L418.456 341.416L418.216 341.568L417.976 341.712L376.76 365.512L376.512 365.648L376.256 365.776L376 365.888L375.744 365.992L375.48 366.088L375.216 366.168L374.952 366.24L374.688 366.296L374.424 366.352L374.16 366.384L373.888 366.416L373.624 366.432L373.352 366.44L373.088 366.432L372.816 366.424L372.552 366.4L372.288 366.368L372.032 366.32L371.768 366.264L371.512 366.2L371.256 366.128L371 366.048L370.752 365.952L370.512 365.848L370.264 365.736L370.032 365.616L369.792 365.488L369.568 365.344L369.344 365.2L369.128 365.04L368.912 364.872L368.704 364.696L368.504 364.512L368.312 364.32L368.128 364.12L367.952 363.904L367.776 363.688L367.616 363.456L367.456 363.224L367.312 362.976L255.2 168.8L143.088 362.976L142.944 363.224L142.784 363.456L142.624 363.688L142.448 363.904L142.272 364.12L142.088 364.32L141.896 364.512L141.696 364.696L141.488 364.872L141.272 365.04L141.056 365.2L140.832 365.344L140.608 365.488L140.368 365.616L140.136 365.736L139.888 365.848L139.648 365.952L139.4 366.048L139.144 366.128L138.888 366.2L138.632 366.264L138.368 366.32L138.112 366.368L137.848 366.4L137.584 366.424L137.312 366.432L137.048 366.44L136.776 366.432L136.512 366.416L136.24 366.384L135.976 366.352L135.712 366.296L135.448 366.24L135.184 366.168L134.92 366.088L134.656 365.992L134.4 365.888L134.144 365.776L133.888 365.648L133.64 365.512L92.4238 341.712L92.1838 341.568L91.9438 341.416L91.7198 341.248L91.4958 341.08L91.2878 340.896L91.0878 340.712L90.8878 340.52L90.7038 340.32L90.5278 340.112L90.3678 339.896L90.2078 339.68L90.0558 339.456L89.9198 339.232L89.7838 338.992L89.6638 338.76L89.5518 338.52L89.4478 338.272L89.3598 338.024L89.2718 337.768L89.1998 337.512L89.1358 337.256L89.0798 337L89.0398 336.736L89.0078 336.472L88.9838 336.208L88.9678 335.936V335.672V335.408L88.9918 335.136L89.0158 334.872L89.0558 334.6L89.1038 334.336L89.1678 334.072L89.2318 333.808L89.3198 333.544L89.4078 333.28L89.5118 333.024L89.6318 332.768L89.7518 332.512L89.8958 332.264L232.544 85.192L232.568 85.136L233.08 84.216L233.472 83.576L234.32 82.112L234.464 81.864L234.624 81.632L234.784 81.4L234.96 81.184L235.136 80.976L235.32 80.768L235.52 80.576L235.72 80.392L235.912 80.232L236.128 79.976L236.824 79.208L237.544 78.464L238.288 77.752L239.064 77.072L239.864 76.424L240.688 75.808L241.528 75.232L242.4 74.68L243.288 74.168L244.192 73.688L245.12 73.248L246.064 72.848L247.032 72.48L248.016 72.16L249.008 71.872L250.024 71.632L251.048 71.432L252.088 71.272L253.144 71.16L254.208 71.088L255.28 71.064L256.36 71.088L257.424 71.16Z"
      fill="#414141" />
    <path
      d="M258.224 96.7599L259.272 96.8719L260.312 97.0319L261.344 97.2319L262.352 97.4719L263.352 97.7599L264.336 98.0799L265.296 98.4479L266.24 98.8479L267.168 99.2879L268.08 99.7679L268.968 100.28L269.832 100.832L270.68 101.408L271.504 102.024L272.296 102.672L273.072 103.352L273.824 104.064L274.544 104.808L275.24 105.576L275.904 106.368L276.088 106.608L276.24 106.784L276.416 107L276.576 107.232L276.64 107.32L277.152 108.04L277.736 108.92L278.28 109.816L278.8 110.736L279.28 111.68L279.712 112.616L421.304 357.864L421.448 358.112L421.568 358.368L421.688 358.624L421.792 358.88L421.88 359.144L421.968 359.408L422.032 359.672L422.096 359.936L422.144 360.2L422.184 360.472L422.208 360.736L422.232 361.008V361.272V361.536L422.216 361.808L422.192 362.072L422.16 362.336L422.12 362.6L422.064 362.856L422 363.112L421.928 363.368L421.84 363.624L421.752 363.872L421.648 364.12L421.536 364.36L421.416 364.592L421.28 364.832L421.144 365.056L420.992 365.28L420.832 365.496L420.672 365.712L420.496 365.92L420.312 366.12L420.112 366.312L419.912 366.496L419.704 366.68L419.48 366.848L419.256 367.016L419.016 367.168L418.776 367.312L377.56 391.112L377.312 391.248L377.056 391.376L376.8 391.488L376.544 391.592L376.28 391.688L376.016 391.768L375.752 391.84L375.488 391.896L375.224 391.952L374.96 391.984L374.688 392.016L374.424 392.032L374.152 392.04L373.888 392.032L373.616 392.024L373.352 392L373.088 391.968L372.832 391.92L372.568 391.864L372.312 391.8L372.056 391.728L371.8 391.648L371.552 391.552L371.312 391.448L371.064 391.336L370.832 391.216L370.592 391.088L370.368 390.944L370.144 390.8L369.928 390.64L369.712 390.472L369.504 390.296L369.304 390.112L369.112 389.92L368.928 389.72L368.752 389.504L368.576 389.288L368.416 389.056L368.256 388.824L368.112 388.576L256 194.4L143.888 388.576L143.744 388.824L143.584 389.056L143.424 389.288L143.248 389.504L143.072 389.72L142.888 389.92L142.696 390.112L142.496 390.296L142.288 390.472L142.072 390.64L141.856 390.8L141.632 390.944L141.408 391.088L141.168 391.216L140.936 391.336L140.688 391.448L140.448 391.552L140.2 391.648L139.944 391.728L139.688 391.8L139.432 391.864L139.168 391.92L138.912 391.968L138.648 392L138.384 392.024L138.112 392.032L137.848 392.04L137.576 392.032L137.312 392.016L137.04 391.984L136.776 391.952L136.512 391.896L136.248 391.84L135.984 391.768L135.72 391.688L135.456 391.592L135.2 391.488L134.944 391.376L134.688 391.248L134.44 391.112L93.2236 367.312L92.9836 367.168L92.7436 367.016L92.5196 366.848L92.2956 366.68L92.0876 366.496L91.8876 366.312L91.6876 366.12L91.5036 365.92L91.3276 365.712L91.1676 365.496L91.0076 365.28L90.8556 365.056L90.7196 364.832L90.5836 364.592L90.4636 364.36L90.3516 364.12L90.2476 363.872L90.1596 363.624L90.0716 363.368L89.9996 363.112L89.9356 362.856L89.8796 362.6L89.8396 362.336L89.8076 362.072L89.7836 361.808L89.7676 361.536V361.272V361.008L89.7916 360.736L89.8156 360.472L89.8556 360.2L89.9036 359.936L89.9676 359.672L90.0316 359.408L90.1196 359.144L90.2076 358.88L90.3116 358.624L90.4316 358.368L90.5516 358.112L90.6956 357.864L233.344 110.792L233.368 110.736L233.88 109.816L234.272 109.176L235.12 107.712L235.264 107.464L235.424 107.232L235.584 107L235.76 106.784L235.936 106.576L236.12 106.368L236.32 106.176L236.52 105.992L236.712 105.832L236.928 105.576L237.624 104.808L238.344 104.064L239.088 103.352L239.864 102.672L240.664 102.024L241.488 101.408L242.328 100.832L243.2 100.28L244.088 99.7679L244.992 99.2879L245.92 98.8479L246.864 98.4479L247.832 98.0799L248.816 97.7599L249.808 97.4719L250.824 97.2319L251.848 97.0319L252.888 96.8719L253.944 96.7599L255.008 96.6879L256.08 96.6639L257.16 96.6879L258.224 96.7599Z"
      fill="#636363" />
    <path
      d="M258.224 125.472L259.272 125.584L260.312 125.744L261.344 125.944L262.352 126.184L263.352 126.472L264.336 126.8L265.296 127.16L266.24 127.56L267.168 128.008L268.08 128.48L268.968 128.992L269.832 129.544L270.68 130.128L271.504 130.744L272.296 131.392L273.072 132.072L273.824 132.776L274.544 133.52L275.24 134.288L275.904 135.088L276.088 135.32L276.24 135.496L276.416 135.72L276.576 135.944L276.64 136.04L277.152 136.76L277.736 137.632L278.28 138.528L278.8 139.456L279.28 140.4L279.712 141.328L421.304 386.576L421.448 386.832L421.568 387.08L421.688 387.336L421.792 387.6L421.88 387.856L421.968 388.12L422.032 388.384L422.096 388.648L422.144 388.912L422.184 389.184L422.208 389.448L422.232 389.72V389.984V390.256L422.216 390.52L422.192 390.784L422.16 391.048L422.12 391.312L422.064 391.568L422 391.832L421.928 392.088L421.84 392.336L421.752 392.584L421.648 392.832L421.536 393.072L421.416 393.312L421.28 393.544L421.144 393.768L420.992 393.992L420.832 394.216L420.672 394.424L420.496 394.632L420.312 394.832L420.112 395.024L419.912 395.208L419.704 395.392L419.48 395.56L419.256 395.728L419.016 395.88L418.776 396.032L377.56 419.824L377.312 419.96L377.056 420.088L376.8 420.208L376.544 420.312L376.28 420.4L376.016 420.48L375.752 420.552L375.488 420.616L375.224 420.664L374.96 420.704L374.688 420.728L374.424 420.744L374.152 420.752H373.888L373.616 420.736L373.352 420.712L373.088 420.68L372.832 420.632L372.568 420.584L372.312 420.52L372.056 420.44L371.8 420.36L371.552 420.264L371.312 420.168L371.064 420.056L370.832 419.928L370.592 419.8L370.368 419.664L370.144 419.512L369.928 419.352L369.712 419.184L369.504 419.008L369.304 418.824L369.112 418.632L368.928 418.432L368.752 418.216L368.576 418L368.416 417.776L368.256 417.536L368.112 417.296L256 223.112L143.888 417.296L143.744 417.536L143.584 417.776L143.424 418L143.248 418.216L143.072 418.432L142.888 418.632L142.696 418.824L142.496 419.008L142.288 419.184L142.072 419.352L141.856 419.512L141.632 419.664L141.408 419.8L141.168 419.928L140.936 420.056L140.688 420.168L140.448 420.264L140.2 420.36L139.944 420.44L139.688 420.52L139.432 420.584L139.168 420.632L138.912 420.68L138.648 420.712L138.384 420.736L138.112 420.752H137.848L137.576 420.744L137.312 420.728L137.04 420.704L136.776 420.664L136.512 420.616L136.248 420.552L135.984 420.48L135.72 420.4L135.456 420.312L135.2 420.208L134.944 420.088L134.688 419.96L134.44 419.824L93.2236 396.032L92.9836 395.88L92.7436 395.728L92.5196 395.56L92.2956 395.392L92.0876 395.208L91.8876 395.024L91.6876 394.832L91.5036 394.632L91.3276 394.424L91.1676 394.216L91.0076 393.992L90.8556 393.768L90.7196 393.544L90.5836 393.312L90.4636 393.072L90.3516 392.832L90.2476 392.584L90.1596 392.336L90.0716 392.088L89.9996 391.832L89.9356 391.568L89.8796 391.312L89.8396 391.048L89.8076 390.784L89.7836 390.52L89.7676 390.256V389.984V389.72L89.7916 389.448L89.8156 389.184L89.8556 388.912L89.9036 388.648L89.9676 388.384L90.0316 388.12L90.1196 387.856L90.2076 387.6L90.3116 387.336L90.4316 387.08L90.5516 386.832L90.6956 386.576L233.344 139.504L233.368 139.456L233.88 138.528L234.272 137.888L235.12 136.424L235.264 136.184L235.424 135.944L235.584 135.72L235.76 135.496L235.936 135.288L236.12 135.088L236.32 134.896L236.52 134.704L236.712 134.544L236.928 134.288L237.624 133.52L238.344 132.776L239.088 132.072L239.864 131.392L240.664 130.744L241.488 130.128L242.328 129.544L243.2 128.992L244.088 128.48L244.992 128.008L245.92 127.56L246.864 127.16L247.832 126.8L248.816 126.472L249.808 126.184L250.824 125.944L251.848 125.744L252.888 125.584L253.944 125.472L255.008 125.4L256.08 125.376L257.16 125.4L258.224 125.472Z"
      fill="url(#paint0_radial_402_2)" />
  </g>
  <defs>
    <radialGradient id="paint0_radial_402_2" cx="0" cy="0" r="1" gradientUnits="userSpaceOnUse"
      gradientTransform="translate(256 150.088) scale(303.552 303.552)">
      <stop stop-color="#FFB800" />
      <stop offset="1" stop-color="#8C6400" />
    </radialGradient>
    <clipPath id="clip0_402_2">
      <rect width="512" height="512" fill="white" />
    </clipPath>
  </defs>
</svg>